<svg width="718" height="100" viewBox="0 0 718 100" fill="none" xmlns="http://www.w3.org/2000/svg">
<rect width="420" height="100" rx="50" fill="#47663B"/>
<path d="M38.9062 47.0312H35.75V43.5625H38.9062C38.9062 42.3125 39.0833 41.2031 39.4375 40.2344C39.7917 39.2552 40.3021 38.4323 40.9688 37.7656C41.6458 37.0885 42.4635 36.5729 43.4219 36.2188C44.3906 35.8646 45.4792 35.6875 46.6875 35.6875C47.5312 35.6875 48.3594 35.7708 49.1719 35.9375C49.9844 36.0938 50.7031 36.3229 51.3281 36.625L49.6875 40.5156C49.4375 40.3698 49.0833 40.2344 48.625 40.1094C48.1771 39.9844 47.6823 39.9219 47.1406 39.9219C46.0781 39.9219 45.2188 40.224 44.5625 40.8281C43.9167 41.4219 43.5729 42.3333 43.5312 43.5625H49.3594V47.0312H43.5312V62H38.9062V47.0312ZM52.9219 43.5469H57.5312V52.5469C57.5312 53.401 57.625 54.1823 57.8125 54.8906C58 55.5885 58.3177 56.1875 58.7656 56.6875C59.224 57.1875 59.8281 57.5781 60.5781 57.8594C61.3385 58.1302 62.2812 58.2656 63.4062 58.2656C63.9375 58.2656 64.474 58.2083 65.0156 58.0938C65.5677 57.9792 66.0938 57.8229 66.5938 57.625C67.0938 57.4167 67.5573 57.1719 67.9844 56.8906C68.4219 56.6094 68.7969 56.3021 69.1094 55.9688V43.5469H73.7344V62H69.1094V60.4219C67.974 61.099 66.8333 61.5833 65.6875 61.875C64.5417 62.1667 63.4531 62.3125 62.4219 62.3125C60.7344 62.3125 59.2865 62.1094 58.0781 61.7031C56.8802 61.2969 55.8958 60.7083 55.125 59.9375C54.3646 59.1562 53.8073 58.2031 53.4531 57.0781C53.099 55.9427 52.9219 54.651 52.9219 53.2031V43.5469ZM78.7344 52.7188C78.7344 51.4688 78.9896 50.276 79.5 49.1406C80.0104 47.9948 80.7448 46.9844 81.7031 46.1094C82.6615 45.2344 83.8333 44.5365 85.2188 44.0156C86.6146 43.4948 88.1979 43.2344 89.9688 43.2344C91.7292 43.2344 93.3125 43.5 94.7188 44.0312C96.1354 44.5521 97.3333 45.2708 98.3125 46.1875C99.3021 47.1042 100.057 48.1823 100.578 49.4219C101.109 50.6615 101.375 51.9896 101.375 53.4062C101.375 53.5833 101.37 53.776 101.359 53.9844C101.359 54.1823 101.349 54.3646 101.328 54.5312H83.8906C84.0885 55.0833 84.4062 55.5885 84.8438 56.0469C85.2917 56.5052 85.849 56.901 86.5156 57.2344C87.1823 57.5677 87.9531 57.8281 88.8281 58.0156C89.7031 58.1927 90.6719 58.2812 91.7344 58.2812C92.7969 58.2812 93.8542 58.1719 94.9062 57.9531C95.9583 57.724 96.9635 57.4375 97.9219 57.0938L99.4844 60.625C98.8802 60.9062 98.2656 61.1562 97.6406 61.375C97.026 61.5833 96.3802 61.7604 95.7031 61.9062C95.0365 62.0417 94.3333 62.1458 93.5938 62.2188C92.8646 62.2917 92.0938 62.3281 91.2812 62.3281C89.2083 62.3281 87.3906 62.0781 85.8281 61.5781C84.2656 61.0781 82.9583 60.3958 81.9062 59.5312C80.8542 58.6667 80.0625 57.651 79.5312 56.4844C79 55.3177 78.7344 54.0625 78.7344 52.7188ZM96.4688 50.9219C96.3021 50.4115 96.0417 49.9375 95.6875 49.5C95.3438 49.0521 94.9115 48.6667 94.3906 48.3438C93.8698 48.0104 93.2656 47.75 92.5781 47.5625C91.8906 47.375 91.1354 47.2812 90.3125 47.2812C89.4375 47.2812 88.6406 47.3802 87.9219 47.5781C87.2031 47.776 86.5729 48.0417 86.0312 48.375C85.4896 48.7083 85.0365 49.0938 84.6719 49.5312C84.3177 49.9688 84.0573 50.4323 83.8906 50.9219H96.4688ZM106.484 36.0781H111.109V62H106.484V36.0781ZM126.562 52.7812C126.562 51.4583 126.828 50.2188 127.359 49.0625C127.901 47.9062 128.667 46.8958 129.656 46.0312C130.656 45.1667 131.859 44.4844 133.266 43.9844C134.682 43.4844 136.271 43.2344 138.031 43.2344C139.792 43.2344 141.375 43.4844 142.781 43.9844C144.198 44.4844 145.401 45.1667 146.391 46.0312C147.391 46.8958 148.156 47.9062 148.688 49.0625C149.229 50.2188 149.5 51.4583 149.5 52.7812C149.5 54.1042 149.229 55.3438 148.688 56.5C148.156 57.6562 147.391 58.6667 146.391 59.5312C145.401 60.3958 144.198 61.0781 142.781 61.5781C141.375 62.0781 139.792 62.3281 138.031 62.3281C136.271 62.3281 134.682 62.0781 133.266 61.5781C131.859 61.0781 130.656 60.3958 129.656 59.5312C128.667 58.6667 127.901 57.6562 127.359 56.5C126.828 55.3438 126.562 54.1042 126.562 52.7812ZM131.422 52.7812C131.422 53.5208 131.568 54.224 131.859 54.8906C132.161 55.5469 132.594 56.1302 133.156 56.6406C133.729 57.1406 134.422 57.5417 135.234 57.8438C136.057 58.1354 136.99 58.2812 138.031 58.2812C139.073 58.2812 140 58.1354 140.812 57.8438C141.635 57.5417 142.328 57.1406 142.891 56.6406C143.464 56.1302 143.896 55.5469 144.188 54.8906C144.49 54.224 144.641 53.5208 144.641 52.7812C144.641 52.0417 144.49 51.3385 144.188 50.6719C143.896 50.0052 143.464 49.4219 142.891 48.9219C142.328 48.4115 141.635 48.0104 140.812 47.7188C140 47.4167 139.073 47.2656 138.031 47.2656C136.99 47.2656 136.057 47.4167 135.234 47.7188C134.422 48.0104 133.729 48.4115 133.156 48.9219C132.594 49.4219 132.161 50.0052 131.859 50.6719C131.568 51.3385 131.422 52.0417 131.422 52.7812ZM154.172 43.5469H158.781V52.5469C158.781 53.401 158.875 54.1823 159.062 54.8906C159.25 55.5885 159.568 56.1875 160.016 56.6875C160.474 57.1875 161.078 57.5781 161.828 57.8594C162.589 58.1302 163.531 58.2656 164.656 58.2656C165.188 58.2656 165.724 58.2083 166.266 58.0938C166.818 57.9792 167.344 57.8229 167.844 57.625C168.344 57.4167 168.807 57.1719 169.234 56.8906C169.672 56.6094 170.047 56.3021 170.359 55.9688V43.5469H174.984V62H170.359V60.4219C169.224 61.099 168.083 61.5833 166.938 61.875C165.792 62.1667 164.703 62.3125 163.672 62.3125C161.984 62.3125 160.536 62.1094 159.328 61.7031C158.13 61.2969 157.146 60.7083 156.375 59.9375C155.615 59.1562 155.057 58.2031 154.703 57.0781C154.349 55.9427 154.172 54.651 154.172 53.2031V43.5469ZM180.859 43.5625H185.484V46.2188C186.505 45.4583 187.583 44.8021 188.719 44.25C189.854 43.6979 190.984 43.276 192.109 42.9844L193.469 47.2188C191.688 47.3958 190.12 47.7969 188.766 48.4219C187.422 49.0365 186.328 49.9062 185.484 51.0312V62H180.859V43.5625ZM207.672 43.5625H212.297V45.125C213.453 44.4167 214.578 43.9271 215.672 43.6562C216.776 43.375 217.854 43.2344 218.906 43.2344C220.375 43.2344 221.724 43.4688 222.953 43.9375C224.182 44.4062 225.234 45.1146 226.109 46.0625C226.786 45.5417 227.453 45.1042 228.109 44.75C228.766 44.3854 229.422 44.0938 230.078 43.875C230.734 43.6458 231.401 43.4844 232.078 43.3906C232.755 43.2865 233.453 43.2344 234.172 43.2344C235.682 43.2344 237.052 43.4427 238.281 43.8594C239.51 44.2656 240.557 44.875 241.422 45.6875C242.297 46.5 242.969 47.5156 243.438 48.7344C243.917 49.9427 244.156 51.3438 244.156 52.9375V62H239.547V53.6875C239.547 52.6771 239.401 51.776 239.109 50.9844C238.828 50.1823 238.427 49.5104 237.906 48.9688C237.396 48.4167 236.781 48 236.062 47.7188C235.354 47.4271 234.573 47.2812 233.719 47.2812C233.25 47.2812 232.771 47.3281 232.281 47.4219C231.792 47.5052 231.312 47.6406 230.844 47.8281C230.385 48.0156 229.953 48.2552 229.547 48.5469C229.141 48.8281 228.786 49.1615 228.484 49.5469V62H223.875V53.6875C223.875 52.6771 223.729 51.776 223.438 50.9844C223.156 50.1823 222.755 49.5104 222.234 48.9688C221.724 48.4167 221.104 48 220.375 47.7188C219.656 47.4271 218.865 47.2812 218 47.2812C217.469 47.2812 216.932 47.3385 216.391 47.4531C215.859 47.5573 215.344 47.7083 214.844 47.9062C214.354 48.1042 213.891 48.3438 213.453 48.625C213.026 48.9062 212.641 49.224 212.297 49.5781V62H207.672V43.5625ZM252.422 41.0469C251.964 41.0469 251.547 40.9844 251.172 40.8594C250.807 40.724 250.495 40.5469 250.234 40.3281C249.974 40.099 249.771 39.8385 249.625 39.5469C249.49 39.2448 249.422 38.9271 249.422 38.5938C249.422 38.25 249.49 37.9323 249.625 37.6406C249.771 37.3385 249.974 37.0781 250.234 36.8594C250.495 36.6406 250.807 36.4688 251.172 36.3438C251.547 36.2083 251.964 36.1406 252.422 36.1406C252.891 36.1406 253.307 36.2083 253.672 36.3438C254.047 36.4688 254.365 36.6406 254.625 36.8594C254.885 37.0781 255.083 37.3385 255.219 37.6406C255.365 37.9323 255.438 38.25 255.438 38.5938C255.438 38.9271 255.365 39.2448 255.219 39.5469C255.083 39.8385 254.885 40.099 254.625 40.3281C254.365 40.5469 254.047 40.724 253.672 40.8594C253.307 40.9844 252.891 41.0469 252.422 41.0469ZM250.109 43.5625H254.734V62H250.109V43.5625ZM261.406 56.3438C262.656 57.0938 264.031 57.6458 265.531 58C267.031 58.3542 268.568 58.5312 270.141 58.5312C271.203 58.5312 272.089 58.4583 272.797 58.3125C273.505 58.1667 274.073 57.9792 274.5 57.75C274.927 57.5208 275.229 57.2604 275.406 56.9688C275.583 56.6771 275.672 56.3802 275.672 56.0781C275.672 55.6406 275.479 55.2656 275.094 54.9531C274.719 54.6406 274.094 54.4844 273.219 54.4844C272.812 54.4844 272.375 54.5104 271.906 54.5625C271.438 54.6146 270.943 54.6719 270.422 54.7344C269.911 54.7865 269.375 54.8385 268.812 54.8906C268.26 54.9427 267.698 54.9688 267.125 54.9688C265.875 54.9688 264.807 54.8333 263.922 54.5625C263.047 54.2917 262.333 53.9219 261.781 53.4531C261.229 52.9844 260.828 52.4323 260.578 51.7969C260.328 51.151 260.203 50.4583 260.203 49.7188C260.203 48.7812 260.422 47.9167 260.859 47.125C261.297 46.3333 261.922 45.651 262.734 45.0781C263.547 44.4948 264.526 44.0417 265.672 43.7188C266.828 43.3958 268.115 43.2344 269.531 43.2344C270.271 43.2344 271.042 43.2812 271.844 43.375C272.656 43.4583 273.453 43.5729 274.234 43.7188C275.016 43.8646 275.766 44.0365 276.484 44.2344C277.203 44.4219 277.839 44.625 278.391 44.8438L276.938 48.4375C275.76 48 274.583 47.6562 273.406 47.4062C272.24 47.1458 271.036 47.0156 269.797 47.0156C268.932 47.0156 268.198 47.0833 267.594 47.2188C267 47.3438 266.516 47.5156 266.141 47.7344C265.766 47.9427 265.49 48.1875 265.312 48.4688C265.146 48.7396 265.062 49.026 265.062 49.3281C265.062 49.5469 265.104 49.7448 265.188 49.9219C265.281 50.099 265.427 50.2552 265.625 50.3906C265.833 50.5156 266.099 50.6146 266.422 50.6875C266.755 50.75 267.161 50.7812 267.641 50.7812C268.078 50.7812 268.542 50.7552 269.031 50.7031C269.521 50.651 270.031 50.599 270.562 50.5469C271.094 50.4844 271.641 50.4271 272.203 50.375C272.776 50.3229 273.359 50.2969 273.953 50.2969C275.057 50.2969 276.021 50.4271 276.844 50.6875C277.677 50.9479 278.365 51.3125 278.906 51.7812C279.448 52.25 279.854 52.8021 280.125 53.4375C280.396 54.0729 280.531 54.7656 280.531 55.5156C280.531 56.4844 280.307 57.3854 279.859 58.2188C279.411 59.0521 278.745 59.776 277.859 60.3906C276.974 60.9948 275.87 61.4688 274.547 61.8125C273.234 62.1562 271.714 62.3281 269.984 62.3281C268.922 62.3281 267.896 62.2604 266.906 62.125C265.917 62 264.974 61.8281 264.078 61.6094C263.182 61.3802 262.339 61.1146 261.547 60.8125C260.766 60.5104 260.052 60.1875 259.406 59.8438L261.406 56.3438ZM285.438 56.3438C286.688 57.0938 288.062 57.6458 289.562 58C291.062 58.3542 292.599 58.5312 294.172 58.5312C295.234 58.5312 296.12 58.4583 296.828 58.3125C297.536 58.1667 298.104 57.9792 298.531 57.75C298.958 57.5208 299.26 57.2604 299.438 56.9688C299.615 56.6771 299.703 56.3802 299.703 56.0781C299.703 55.6406 299.51 55.2656 299.125 54.9531C298.75 54.6406 298.125 54.4844 297.25 54.4844C296.844 54.4844 296.406 54.5104 295.938 54.5625C295.469 54.6146 294.974 54.6719 294.453 54.7344C293.943 54.7865 293.406 54.8385 292.844 54.8906C292.292 54.9427 291.729 54.9688 291.156 54.9688C289.906 54.9688 288.839 54.8333 287.953 54.5625C287.078 54.2917 286.365 53.9219 285.812 53.4531C285.26 52.9844 284.859 52.4323 284.609 51.7969C284.359 51.151 284.234 50.4583 284.234 49.7188C284.234 48.7812 284.453 47.9167 284.891 47.125C285.328 46.3333 285.953 45.651 286.766 45.0781C287.578 44.4948 288.557 44.0417 289.703 43.7188C290.859 43.3958 292.146 43.2344 293.562 43.2344C294.302 43.2344 295.073 43.2812 295.875 43.375C296.688 43.4583 297.484 43.5729 298.266 43.7188C299.047 43.8646 299.797 44.0365 300.516 44.2344C301.234 44.4219 301.87 44.625 302.422 44.8438L300.969 48.4375C299.792 48 298.615 47.6562 297.438 47.4062C296.271 47.1458 295.068 47.0156 293.828 47.0156C292.964 47.0156 292.229 47.0833 291.625 47.2188C291.031 47.3438 290.547 47.5156 290.172 47.7344C289.797 47.9427 289.521 48.1875 289.344 48.4688C289.177 48.7396 289.094 49.026 289.094 49.3281C289.094 49.5469 289.135 49.7448 289.219 49.9219C289.312 50.099 289.458 50.2552 289.656 50.3906C289.865 50.5156 290.13 50.6146 290.453 50.6875C290.786 50.75 291.193 50.7812 291.672 50.7812C292.109 50.7812 292.573 50.7552 293.062 50.7031C293.552 50.651 294.062 50.599 294.594 50.5469C295.125 50.4844 295.672 50.4271 296.234 50.375C296.807 50.3229 297.391 50.2969 297.984 50.2969C299.089 50.2969 300.052 50.4271 300.875 50.6875C301.708 50.9479 302.396 51.3125 302.938 51.7812C303.479 52.25 303.885 52.8021 304.156 53.4375C304.427 54.0729 304.562 54.7656 304.562 55.5156C304.562 56.4844 304.339 57.3854 303.891 58.2188C303.443 59.0521 302.776 59.776 301.891 60.3906C301.005 60.9948 299.901 61.4688 298.578 61.8125C297.266 62.1562 295.745 62.3281 294.016 62.3281C292.953 62.3281 291.927 62.2604 290.938 62.125C289.948 62 289.005 61.8281 288.109 61.6094C287.214 61.3802 286.37 61.1146 285.578 60.8125C284.797 60.5104 284.083 60.1875 283.438 59.8438L285.438 56.3438ZM311.172 41.0469C310.714 41.0469 310.297 40.9844 309.922 40.8594C309.557 40.724 309.245 40.5469 308.984 40.3281C308.724 40.099 308.521 39.8385 308.375 39.5469C308.24 39.2448 308.172 38.9271 308.172 38.5938C308.172 38.25 308.24 37.9323 308.375 37.6406C308.521 37.3385 308.724 37.0781 308.984 36.8594C309.245 36.6406 309.557 36.4688 309.922 36.3438C310.297 36.2083 310.714 36.1406 311.172 36.1406C311.641 36.1406 312.057 36.2083 312.422 36.3438C312.797 36.4688 313.115 36.6406 313.375 36.8594C313.635 37.0781 313.833 37.3385 313.969 37.6406C314.115 37.9323 314.188 38.25 314.188 38.5938C314.188 38.9271 314.115 39.2448 313.969 39.5469C313.833 39.8385 313.635 40.099 313.375 40.3281C313.115 40.5469 312.797 40.724 312.422 40.8594C312.057 40.9844 311.641 41.0469 311.172 41.0469ZM308.859 43.5625H313.484V62H308.859V43.5625ZM318.312 52.7812C318.312 51.4583 318.578 50.2188 319.109 49.0625C319.651 47.9062 320.417 46.8958 321.406 46.0312C322.406 45.1667 323.609 44.4844 325.016 43.9844C326.432 43.4844 328.021 43.2344 329.781 43.2344C331.542 43.2344 333.125 43.4844 334.531 43.9844C335.948 44.4844 337.151 45.1667 338.141 46.0312C339.141 46.8958 339.906 47.9062 340.438 49.0625C340.979 50.2188 341.25 51.4583 341.25 52.7812C341.25 54.1042 340.979 55.3438 340.438 56.5C339.906 57.6562 339.141 58.6667 338.141 59.5312C337.151 60.3958 335.948 61.0781 334.531 61.5781C333.125 62.0781 331.542 62.3281 329.781 62.3281C328.021 62.3281 326.432 62.0781 325.016 61.5781C323.609 61.0781 322.406 60.3958 321.406 59.5312C320.417 58.6667 319.651 57.6562 319.109 56.5C318.578 55.3438 318.312 54.1042 318.312 52.7812ZM323.172 52.7812C323.172 53.5208 323.318 54.224 323.609 54.8906C323.911 55.5469 324.344 56.1302 324.906 56.6406C325.479 57.1406 326.172 57.5417 326.984 57.8438C327.807 58.1354 328.74 58.2812 329.781 58.2812C330.823 58.2812 331.75 58.1354 332.562 57.8438C333.385 57.5417 334.078 57.1406 334.641 56.6406C335.214 56.1302 335.646 55.5469 335.938 54.8906C336.24 54.224 336.391 53.5208 336.391 52.7812C336.391 52.0417 336.24 51.3385 335.938 50.6719C335.646 50.0052 335.214 49.4219 334.641 48.9219C334.078 48.4115 333.385 48.0104 332.562 47.7188C331.75 47.4167 330.823 47.2656 329.781 47.2656C328.74 47.2656 327.807 47.4167 326.984 47.7188C326.172 48.0104 325.479 48.4115 324.906 48.9219C324.344 49.4219 323.911 50.0052 323.609 50.6719C323.318 51.3385 323.172 52.0417 323.172 52.7812ZM345.922 43.5625H350.547V45.125C351.776 44.4271 352.948 43.9375 354.062 43.6562C355.188 43.375 356.286 43.2344 357.359 43.2344C358.766 43.2344 360.068 43.4427 361.266 43.8594C362.464 44.2656 363.5 44.875 364.375 45.6875C365.25 46.5 365.932 47.5156 366.422 48.7344C366.922 49.9427 367.172 51.3438 367.172 52.9375V62H362.562V53.6875C362.562 52.6771 362.417 51.776 362.125 50.9844C361.844 50.1823 361.432 49.5104 360.891 48.9688C360.359 48.4167 359.708 48 358.938 47.7188C358.177 47.4271 357.323 47.2812 356.375 47.2812C355.875 47.2812 355.359 47.3333 354.828 47.4375C354.307 47.5417 353.792 47.6927 353.281 47.8906C352.781 48.0781 352.297 48.3177 351.828 48.6094C351.359 48.8906 350.932 49.2135 350.547 49.5781V62H345.922V43.5625Z" fill="white"/>
<rect x="388" width="330" height="100" rx="50" fill="#47663B"/>
<path d="M436.781 52.8281C436.781 51.474 437.026 50.2135 437.516 49.0469C438.016 47.8698 438.74 46.8542 439.688 46C440.646 45.1354 441.812 44.4583 443.188 43.9688C444.573 43.4792 446.151 43.2344 447.922 43.2344C448.693 43.2344 449.469 43.2812 450.25 43.375C451.031 43.4688 451.781 43.6042 452.5 43.7812C453.229 43.9479 453.911 44.151 454.547 44.3906C455.182 44.6198 455.734 44.875 456.203 45.1562L454.062 48.6406C453.052 48.1719 452.094 47.8281 451.188 47.6094C450.292 47.3906 449.38 47.2812 448.453 47.2812C447.391 47.2812 446.438 47.4219 445.594 47.7031C444.75 47.974 444.031 48.3594 443.438 48.8594C442.854 49.349 442.406 49.9323 442.094 50.6094C441.792 51.276 441.641 52.0052 441.641 52.7969C441.641 53.5885 441.802 54.3229 442.125 55C442.458 55.6667 442.922 56.2448 443.516 56.7344C444.12 57.2135 444.844 57.5938 445.688 57.875C446.542 58.1458 447.49 58.2812 448.531 58.2812C449.677 58.2812 450.755 58.1198 451.766 57.7969C452.786 57.474 453.734 57.0417 454.609 56.5L456.75 59.9844C456.198 60.3177 455.599 60.6302 454.953 60.9219C454.307 61.2031 453.615 61.4479 452.875 61.6562C452.146 61.8646 451.375 62.026 450.562 62.1406C449.76 62.2656 448.927 62.3281 448.062 62.3281C446.302 62.3281 444.724 62.0885 443.328 61.6094C441.932 61.1302 440.75 60.4688 439.781 59.625C438.812 58.7708 438.068 57.7656 437.547 56.6094C437.036 55.4531 436.781 54.1927 436.781 52.8281ZM461.859 36.0781H466.484V62H461.859V36.0781ZM474.859 41.0469C474.401 41.0469 473.984 40.9844 473.609 40.8594C473.245 40.724 472.932 40.5469 472.672 40.3281C472.411 40.099 472.208 39.8385 472.062 39.5469C471.927 39.2448 471.859 38.9271 471.859 38.5938C471.859 38.25 471.927 37.9323 472.062 37.6406C472.208 37.3385 472.411 37.0781 472.672 36.8594C472.932 36.6406 473.245 36.4688 473.609 36.3438C473.984 36.2083 474.401 36.1406 474.859 36.1406C475.328 36.1406 475.745 36.2083 476.109 36.3438C476.484 36.4688 476.802 36.6406 477.062 36.8594C477.323 37.0781 477.521 37.3385 477.656 37.6406C477.802 37.9323 477.875 38.25 477.875 38.5938C477.875 38.9271 477.802 39.2448 477.656 39.5469C477.521 39.8385 477.323 40.099 477.062 40.3281C476.802 40.5469 476.484 40.724 476.109 40.8594C475.745 40.9844 475.328 41.0469 474.859 41.0469ZM472.547 43.5625H477.172V62H472.547V43.5625ZM482 52.8281C482 51.474 482.245 50.2135 482.734 49.0469C483.234 47.8698 483.958 46.8542 484.906 46C485.865 45.1354 487.031 44.4583 488.406 43.9688C489.792 43.4792 491.37 43.2344 493.141 43.2344C493.911 43.2344 494.688 43.2812 495.469 43.375C496.25 43.4688 497 43.6042 497.719 43.7812C498.448 43.9479 499.13 44.151 499.766 44.3906C500.401 44.6198 500.953 44.875 501.422 45.1562L499.281 48.6406C498.271 48.1719 497.312 47.8281 496.406 47.6094C495.51 47.3906 494.599 47.2812 493.672 47.2812C492.609 47.2812 491.656 47.4219 490.812 47.7031C489.969 47.974 489.25 48.3594 488.656 48.8594C488.073 49.349 487.625 49.9323 487.312 50.6094C487.01 51.276 486.859 52.0052 486.859 52.7969C486.859 53.5885 487.021 54.3229 487.344 55C487.677 55.6667 488.141 56.2448 488.734 56.7344C489.339 57.2135 490.062 57.5938 490.906 57.875C491.76 58.1458 492.708 58.2812 493.75 58.2812C494.896 58.2812 495.974 58.1198 496.984 57.7969C498.005 57.474 498.953 57.0417 499.828 56.5L501.969 59.9844C501.417 60.3177 500.818 60.6302 500.172 60.9219C499.526 61.2031 498.833 61.4479 498.094 61.6562C497.365 61.8646 496.594 62.026 495.781 62.1406C494.979 62.2656 494.146 62.3281 493.281 62.3281C491.521 62.3281 489.943 62.0885 488.547 61.6094C487.151 61.1302 485.969 60.4688 485 59.625C484.031 58.7708 483.286 57.7656 482.766 56.6094C482.255 55.4531 482 54.1927 482 52.8281ZM506.969 36.0781H511.594V51.3906L520.219 43.5625H527.297L517.656 52.1875L527.906 62H520.969L514.109 55.3594L511.594 57.6094V62H506.969V36.0781ZM544.359 47.0312H539.906V43.5625H544.359V37.8281H548.984V43.5625H553.438V47.0312H548.984V62H544.359V47.0312ZM556.438 52.7812C556.438 51.4583 556.703 50.2188 557.234 49.0625C557.776 47.9062 558.542 46.8958 559.531 46.0312C560.531 45.1667 561.734 44.4844 563.141 43.9844C564.557 43.4844 566.146 43.2344 567.906 43.2344C569.667 43.2344 571.25 43.4844 572.656 43.9844C574.073 44.4844 575.276 45.1667 576.266 46.0312C577.266 46.8958 578.031 47.9062 578.562 49.0625C579.104 50.2188 579.375 51.4583 579.375 52.7812C579.375 54.1042 579.104 55.3438 578.562 56.5C578.031 57.6562 577.266 58.6667 576.266 59.5312C575.276 60.3958 574.073 61.0781 572.656 61.5781C571.25 62.0781 569.667 62.3281 567.906 62.3281C566.146 62.3281 564.557 62.0781 563.141 61.5781C561.734 61.0781 560.531 60.3958 559.531 59.5312C558.542 58.6667 557.776 57.6562 557.234 56.5C556.703 55.3438 556.438 54.1042 556.438 52.7812ZM561.297 52.7812C561.297 53.5208 561.443 54.224 561.734 54.8906C562.036 55.5469 562.469 56.1302 563.031 56.6406C563.604 57.1406 564.297 57.5417 565.109 57.8438C565.932 58.1354 566.865 58.2812 567.906 58.2812C568.948 58.2812 569.875 58.1354 570.688 57.8438C571.51 57.5417 572.203 57.1406 572.766 56.6406C573.339 56.1302 573.771 55.5469 574.062 54.8906C574.365 54.224 574.516 53.5208 574.516 52.7812C574.516 52.0417 574.365 51.3385 574.062 50.6719C573.771 50.0052 573.339 49.4219 572.766 48.9219C572.203 48.4115 571.51 48.0104 570.688 47.7188C569.875 47.4167 568.948 47.2656 567.906 47.2656C566.865 47.2656 565.932 47.4167 565.109 47.7188C564.297 48.0104 563.604 48.4115 563.031 48.9219C562.469 49.4219 562.036 50.0052 561.734 50.6719C561.443 51.3385 561.297 52.0417 561.297 52.7812ZM597.562 65.125C598.146 65.3333 598.74 65.5052 599.344 65.6406C599.948 65.7865 600.531 65.901 601.094 65.9844C601.667 66.0781 602.214 66.1406 602.734 66.1719C603.255 66.2135 603.719 66.2344 604.125 66.2344C605.354 66.2344 606.422 66.0833 607.328 65.7812C608.245 65.4896 609.005 65.0938 609.609 64.5938C610.224 64.0938 610.682 63.5104 610.984 62.8438C611.286 62.1875 611.438 61.4896 611.438 60.75V59.9531C611.042 60.224 610.578 60.4844 610.047 60.7344C609.516 60.9844 608.932 61.2031 608.297 61.3906C607.661 61.5781 606.984 61.7292 606.266 61.8438C605.557 61.9583 604.823 62.0156 604.062 62.0156C602.552 62.0156 601.156 61.7917 599.875 61.3438C598.594 60.8854 597.484 60.25 596.547 59.4375C595.609 58.6146 594.875 57.6302 594.344 56.4844C593.823 55.3385 593.562 54.0677 593.562 52.6719C593.562 51.2448 593.839 49.9531 594.391 48.7969C594.943 47.6302 595.703 46.6354 596.672 45.8125C597.651 44.9896 598.807 44.3542 600.141 43.9062C601.474 43.4583 602.922 43.2344 604.484 43.2344C605.151 43.2344 605.812 43.276 606.469 43.3594C607.125 43.4427 607.75 43.5573 608.344 43.7031C608.948 43.849 609.51 44.026 610.031 44.2344C610.562 44.4323 611.031 44.651 611.438 44.8906V43.5625H616.062V59.8906C616.062 61.5677 615.807 63.0521 615.297 64.3438C614.786 65.6354 614.036 66.7188 613.047 67.5938C612.068 68.4792 610.849 69.1458 609.391 69.5938C607.932 70.0521 606.26 70.2812 604.375 70.2812C603.698 70.2812 602.995 70.25 602.266 70.1875C601.536 70.1354 600.802 70.0521 600.062 69.9375C599.333 69.8333 598.609 69.7031 597.891 69.5469C597.182 69.401 596.5 69.2292 595.844 69.0312L597.562 65.125ZM598.422 52.625C598.422 53.3646 598.568 54.0625 598.859 54.7188C599.161 55.3646 599.589 55.9323 600.141 56.4219C600.693 56.901 601.359 57.2812 602.141 57.5625C602.922 57.8333 603.802 57.9688 604.781 57.9688C605.417 57.9688 606.047 57.9115 606.672 57.7969C607.307 57.6719 607.911 57.5 608.484 57.2812C609.068 57.0625 609.609 56.7969 610.109 56.4844C610.62 56.1719 611.062 55.8229 611.438 55.4375V49.3594C610.969 48.9844 610.474 48.6667 609.953 48.4062C609.432 48.1458 608.901 47.9323 608.359 47.7656C607.818 47.599 607.271 47.4792 606.719 47.4062C606.167 47.3229 605.63 47.2812 605.109 47.2812C604.047 47.2812 603.099 47.4219 602.266 47.7031C601.443 47.9844 600.745 48.3698 600.172 48.8594C599.609 49.3385 599.177 49.901 598.875 50.5469C598.573 51.1927 598.422 51.8854 598.422 52.625ZM623.766 41.0469C623.307 41.0469 622.891 40.9844 622.516 40.8594C622.151 40.724 621.839 40.5469 621.578 40.3281C621.318 40.099 621.115 39.8385 620.969 39.5469C620.833 39.2448 620.766 38.9271 620.766 38.5938C620.766 38.25 620.833 37.9323 620.969 37.6406C621.115 37.3385 621.318 37.0781 621.578 36.8594C621.839 36.6406 622.151 36.4688 622.516 36.3438C622.891 36.2083 623.307 36.1406 623.766 36.1406C624.234 36.1406 624.651 36.2083 625.016 36.3438C625.391 36.4688 625.708 36.6406 625.969 36.8594C626.229 37.0781 626.427 37.3385 626.562 37.6406C626.708 37.9323 626.781 38.25 626.781 38.5938C626.781 38.9271 626.708 39.2448 626.562 39.5469C626.427 39.8385 626.229 40.099 625.969 40.3281C625.708 40.5469 625.391 40.724 625.016 40.8594C624.651 40.9844 624.234 41.0469 623.766 41.0469ZM621.453 43.5625H626.078V62H621.453V43.5625ZM629.469 43.5469H634.828L639.625 54.6406L640.875 57.75L642.125 54.6406L646.922 43.5469H652.281L643.547 62H638.203L629.469 43.5469ZM654.641 52.7188C654.641 51.4688 654.896 50.276 655.406 49.1406C655.917 47.9948 656.651 46.9844 657.609 46.1094C658.568 45.2344 659.74 44.5365 661.125 44.0156C662.521 43.4948 664.104 43.2344 665.875 43.2344C667.635 43.2344 669.219 43.5 670.625 44.0312C672.042 44.5521 673.24 45.2708 674.219 46.1875C675.208 47.1042 675.964 48.1823 676.484 49.4219C677.016 50.6615 677.281 51.9896 677.281 53.4062C677.281 53.5833 677.276 53.776 677.266 53.9844C677.266 54.1823 677.255 54.3646 677.234 54.5312H659.797C659.995 55.0833 660.312 55.5885 660.75 56.0469C661.198 56.5052 661.755 56.901 662.422 57.2344C663.089 57.5677 663.859 57.8281 664.734 58.0156C665.609 58.1927 666.578 58.2812 667.641 58.2812C668.703 58.2812 669.76 58.1719 670.812 57.9531C671.865 57.724 672.87 57.4375 673.828 57.0938L675.391 60.625C674.786 60.9062 674.172 61.1562 673.547 61.375C672.932 61.5833 672.286 61.7604 671.609 61.9062C670.943 62.0417 670.24 62.1458 669.5 62.2188C668.771 62.2917 668 62.3281 667.188 62.3281C665.115 62.3281 663.297 62.0781 661.734 61.5781C660.172 61.0781 658.865 60.3958 657.812 59.5312C656.76 58.6667 655.969 57.651 655.438 56.4844C654.906 55.3177 654.641 54.0625 654.641 52.7188ZM672.375 50.9219C672.208 50.4115 671.948 49.9375 671.594 49.5C671.25 49.0521 670.818 48.6667 670.297 48.3438C669.776 48.0104 669.172 47.75 668.484 47.5625C667.797 47.375 667.042 47.2812 666.219 47.2812C665.344 47.2812 664.547 47.3802 663.828 47.5781C663.109 47.776 662.479 48.0417 661.938 48.375C661.396 48.7083 660.943 49.0938 660.578 49.5312C660.224 49.9688 659.964 50.4323 659.797 50.9219H672.375Z" fill="white"/>
</svg>
